<svg xmlns="http://www.w3.org/2000/svg" width="256" height="256" viewBox="0 0 256 256" fill="none">
  <defs>
    <linearGradient id="bg" x1="32" y1="24" x2="224" y2="232" gradientUnits="userSpaceOnUse">
      <stop stop-color="#0D1224"/>
      <stop offset="1" stop-color="#05070E"/>
    </linearGradient>
    <linearGradient id="frame" x1="48" y1="40" x2="208" y2="216" gradientUnits="userSpaceOnUse">
      <stop stop-color="#58D6FF"/>
      <stop offset="0.55" stop-color="#BE92FF"/>
      <stop offset="1" stop-color="#FF7EDB"/>
    </linearGradient>
    <linearGradient id="sun" x1="128" y1="98" x2="128" y2="162" gradientUnits="userSpaceOnUse">
      <stop stop-color="#FFD86F"/>
      <stop offset="0.45" stop-color="#FF7EDB"/>
      <stop offset="1" stop-color="#BE92FF"/>
    </linearGradient>
    <linearGradient id="road" x1="128" y1="154" x2="128" y2="226" gradientUnits="userSpaceOnUse">
      <stop stop-color="#1B2140"/>
      <stop offset="1" stop-color="#0A0E1C"/>
    </linearGradient>
  </defs>
  <rect x="18" y="18" width="220" height="220" rx="34" fill="url(#bg)"/>
  <rect x="18" y="18" width="220" height="220" rx="34" stroke="url(#frame)" stroke-width="10"/>
  <rect x="42" y="40" width="172" height="22" rx="11" fill="#131A33"/>
  <circle cx="60" cy="51" r="4" fill="#FF7EDB"/>
  <circle cx="76" cy="51" r="4" fill="#BE92FF"/>
  <circle cx="92" cy="51" r="4" fill="#58D6FF"/>
  <path d="M64 90H122L138 106L122 122H64V90Z" fill="#0F1730" stroke="#58D6FF" stroke-width="6" stroke-linejoin="round"/>
  <path d="M88 97L76 106L88 115" stroke="#58D6FF" stroke-width="6" stroke-linecap="round" stroke-linejoin="round"/>
  <path d="M98 118H114" stroke="#FF7EDB" stroke-width="6" stroke-linecap="round"/>
  <circle cx="182" cy="116" r="34" fill="url(#sun)"/>
  <path d="M148 101H216" stroke="#0D1224" stroke-width="4"/>
  <path d="M152 113H212" stroke="#0D1224" stroke-width="4"/>
  <path d="M148 125H216" stroke="#0D1224" stroke-width="4"/>
  <path d="M156 137H208" stroke="#0D1224" stroke-width="4"/>
  <path d="M66 154L128 222L190 154H66Z" fill="url(#road)"/>
  <path d="M128 160V220" stroke="#58D6FF" stroke-width="4" stroke-dasharray="10 10"/>
  <path d="M94 154L66 222" stroke="#BE92FF" stroke-width="3"/>
  <path d="M162 154L190 222" stroke="#FF7EDB" stroke-width="3"/>
  <path d="M80 171H176" stroke="#202A4E" stroke-width="3"/>
  <path d="M72 186H184" stroke="#1B2342" stroke-width="3"/>
  <path d="M64 201H192" stroke="#151D38" stroke-width="3"/>
  <path d="M92 186L104 176H126L140 188H160L170 198" stroke="#D8DDFF" stroke-width="6" stroke-linecap="round" stroke-linejoin="round"/>
  <circle cx="88" cy="200" r="9" fill="#05070E" stroke="#58D6FF" stroke-width="5"/>
  <circle cx="168" cy="200" r="9" fill="#05070E" stroke="#FF7EDB" stroke-width="5"/>
</svg>
